<svg xmlns="http://www.w3.org/2000/svg" xmlns:xlink="http://www.w3.org/1999/xlink" width="500" zoomAndPan="magnify" viewBox="0 0 375 374.999991" height="500" preserveAspectRatio="xMidYMid meet" version="1.0"><defs><g/><clipPath id="3fd9bd6253"><path d="M 81 161.964844 L 102.304688 161.964844 L 102.304688 228.78125 L 81 228.78125 Z M 81 161.964844 " clip-rule="nonzero"/></clipPath></defs><g fill="#ffffff" fill-opacity="1"><g transform="translate(105.698376, 204.759083)"><g><path d="M 10.34375 0.375 C 9.144531 0.375 8.019531 0.140625 6.96875 -0.328125 C 5.914062 -0.796875 4.992188 -1.429688 4.203125 -2.234375 C 3.421875 -3.035156 2.800781 -3.972656 2.34375 -5.046875 C 1.882812 -6.117188 1.65625 -7.269531 1.65625 -8.5 C 1.65625 -9.707031 1.882812 -10.851562 2.34375 -11.9375 C 2.800781 -13.019531 3.421875 -13.960938 4.203125 -14.765625 C 4.992188 -15.566406 5.914062 -16.203125 6.96875 -16.671875 C 8.019531 -17.140625 9.144531 -17.375 10.34375 -17.375 C 11.550781 -17.375 12.679688 -17.140625 13.734375 -16.671875 C 14.785156 -16.203125 15.703125 -15.566406 16.484375 -14.765625 C 17.273438 -13.960938 17.894531 -13.023438 18.34375 -11.953125 C 18.800781 -10.878906 19.03125 -9.726562 19.03125 -8.5 C 19.03125 -7.269531 18.800781 -6.117188 18.34375 -5.046875 C 17.894531 -3.972656 17.273438 -3.035156 16.484375 -2.234375 C 15.703125 -1.429688 14.785156 -0.796875 13.734375 -0.328125 C 12.679688 0.140625 11.550781 0.375 10.34375 0.375 Z M 10.34375 -1.890625 C 11.238281 -1.890625 12.0625 -2.054688 12.8125 -2.390625 C 13.5625 -2.722656 14.210938 -3.179688 14.765625 -3.765625 C 15.316406 -4.359375 15.75 -5.054688 16.0625 -5.859375 C 16.375 -6.660156 16.53125 -7.539062 16.53125 -8.5 C 16.53125 -9.457031 16.375 -10.335938 16.0625 -11.140625 C 15.75 -11.941406 15.316406 -12.640625 14.765625 -13.234375 C 14.210938 -13.828125 13.5625 -14.289062 12.8125 -14.625 C 12.0625 -14.957031 11.238281 -15.125 10.34375 -15.125 C 9.457031 -15.125 8.640625 -14.957031 7.890625 -14.625 C 7.140625 -14.289062 6.488281 -13.828125 5.9375 -13.234375 C 5.382812 -12.640625 4.953125 -11.941406 4.640625 -11.140625 C 4.328125 -10.335938 4.171875 -9.457031 4.171875 -8.5 C 4.171875 -7.539062 4.328125 -6.660156 4.640625 -5.859375 C 4.953125 -5.054688 5.382812 -4.359375 5.9375 -3.765625 C 6.488281 -3.179688 7.140625 -2.722656 7.890625 -2.390625 C 8.640625 -2.054688 9.457031 -1.890625 10.34375 -1.890625 Z M 10.34375 -1.890625 "/></g></g></g><g fill="#ffffff" fill-opacity="1"><g transform="translate(126.403059, 204.759083)"><g><path d="M 10.34375 0.375 C 9.144531 0.375 8.019531 0.140625 6.96875 -0.328125 C 5.914062 -0.796875 4.992188 -1.429688 4.203125 -2.234375 C 3.421875 -3.035156 2.800781 -3.972656 2.34375 -5.046875 C 1.882812 -6.117188 1.65625 -7.269531 1.65625 -8.5 C 1.65625 -9.707031 1.882812 -10.851562 2.34375 -11.9375 C 2.800781 -13.019531 3.414062 -13.960938 4.1875 -14.765625 C 4.96875 -15.566406 5.878906 -16.203125 6.921875 -16.671875 C 7.972656 -17.140625 9.101562 -17.375 10.3125 -17.375 C 11.71875 -17.375 13.023438 -17.054688 14.234375 -16.421875 C 15.441406 -15.796875 16.441406 -14.941406 17.234375 -13.859375 L 15.484375 -12.421875 C 14.847656 -13.285156 14.078125 -13.953125 13.171875 -14.421875 C 12.273438 -14.890625 11.3125 -15.125 10.28125 -15.125 C 9.394531 -15.125 8.582031 -14.957031 7.84375 -14.625 C 7.101562 -14.289062 6.460938 -13.828125 5.921875 -13.234375 C 5.378906 -12.640625 4.953125 -11.941406 4.640625 -11.140625 C 4.328125 -10.335938 4.171875 -9.472656 4.171875 -8.546875 C 4.171875 -7.578125 4.328125 -6.6875 4.640625 -5.875 C 4.953125 -5.0625 5.382812 -4.359375 5.9375 -3.765625 C 6.488281 -3.179688 7.144531 -2.722656 7.90625 -2.390625 C 8.675781 -2.054688 9.515625 -1.890625 10.421875 -1.890625 C 11.503906 -1.890625 12.5 -2.113281 13.40625 -2.5625 C 14.320312 -3.019531 15.101562 -3.679688 15.75 -4.546875 L 17.34375 -3.25 C 16.550781 -2.144531 15.550781 -1.265625 14.34375 -0.609375 C 13.132812 0.046875 11.800781 0.375 10.34375 0.375 Z M 10.34375 0.375 "/></g></g></g><g fill="#ffffff" fill-opacity="1"><g transform="translate(145.037267, 204.759083)"><g><path d="M 10.421875 0.375 C 9.117188 0.375 7.929688 0.148438 6.859375 -0.296875 C 5.785156 -0.742188 4.863281 -1.359375 4.09375 -2.140625 C 3.332031 -2.929688 2.734375 -3.867188 2.296875 -4.953125 C 1.867188 -6.035156 1.65625 -7.21875 1.65625 -8.5 C 1.65625 -9.78125 1.863281 -10.960938 2.28125 -12.046875 C 2.707031 -13.128906 3.289062 -14.066406 4.03125 -14.859375 C 4.769531 -15.648438 5.648438 -16.265625 6.671875 -16.703125 C 7.691406 -17.148438 8.820312 -17.375 10.0625 -17.375 C 11.21875 -17.375 12.285156 -17.171875 13.265625 -16.765625 C 14.253906 -16.359375 15.101562 -15.796875 15.8125 -15.078125 C 16.53125 -14.367188 17.09375 -13.507812 17.5 -12.5 C 17.90625 -11.488281 18.109375 -10.378906 18.109375 -9.171875 C 18.109375 -8.671875 18.070312 -8.226562 18 -7.84375 L 4.21875 -7.84375 C 4.363281 -5.988281 5.007812 -4.535156 6.15625 -3.484375 C 7.300781 -2.441406 8.773438 -1.921875 10.578125 -1.921875 C 12.816406 -1.921875 14.6875 -2.785156 16.1875 -4.515625 L 17.75 -3.21875 C 16.863281 -2.03125 15.789062 -1.132812 14.53125 -0.53125 C 13.269531 0.0703125 11.898438 0.375 10.421875 0.375 Z M 15.53125 -9.984375 C 15.332031 -11.609375 14.734375 -12.863281 13.734375 -13.75 C 12.734375 -14.632812 11.484375 -15.078125 9.984375 -15.078125 C 8.429688 -15.078125 7.15625 -14.613281 6.15625 -13.6875 C 5.15625 -12.769531 4.53125 -11.535156 4.28125 -9.984375 Z M 15.53125 -9.984375 "/></g></g></g><g fill="#ffffff" fill-opacity="1"><g transform="translate(164.632767, 204.759083)"><g><path d="M 7.25 0.375 C 6.382812 0.375 5.585938 0.242188 4.859375 -0.015625 C 4.128906 -0.273438 3.5 -0.640625 2.96875 -1.109375 C 2.445312 -1.578125 2.035156 -2.132812 1.734375 -2.78125 C 1.441406 -3.4375 1.296875 -4.148438 1.296875 -4.921875 C 1.296875 -5.734375 1.460938 -6.472656 1.796875 -7.140625 C 2.128906 -7.804688 2.585938 -8.382812 3.171875 -8.875 C 3.765625 -9.363281 4.460938 -9.742188 5.265625 -10.015625 C 6.066406 -10.285156 6.9375 -10.421875 7.875 -10.421875 C 8.90625 -10.421875 9.816406 -10.316406 10.609375 -10.109375 C 11.398438 -9.898438 12.175781 -9.5625 12.9375 -9.09375 L 12.9375 -10.171875 C 12.9375 -11.691406 12.523438 -12.914062 11.703125 -13.84375 C 10.878906 -14.769531 9.785156 -15.234375 8.421875 -15.234375 C 6.671875 -15.234375 5.242188 -14.46875 4.140625 -12.9375 L 2.359375 -14.421875 C 3.179688 -15.378906 4.117188 -16.109375 5.171875 -16.609375 C 6.234375 -17.117188 7.359375 -17.375 8.546875 -17.375 C 9.523438 -17.375 10.429688 -17.203125 11.265625 -16.859375 C 12.109375 -16.515625 12.832031 -16.03125 13.4375 -15.40625 C 14.039062 -14.789062 14.507812 -14.054688 14.84375 -13.203125 C 15.175781 -12.359375 15.34375 -11.445312 15.34375 -10.46875 L 15.34375 0 L 12.9375 0 L 12.9375 -2.65625 C 12.21875 -1.625 11.378906 -0.859375 10.421875 -0.359375 C 9.460938 0.128906 8.40625 0.375 7.25 0.375 Z M 7.6875 -1.78125 C 8.445312 -1.78125 9.148438 -1.898438 9.796875 -2.140625 C 10.441406 -2.390625 10.992188 -2.726562 11.453125 -3.15625 C 11.921875 -3.59375 12.285156 -4.117188 12.546875 -4.734375 C 12.804688 -5.347656 12.9375 -6.023438 12.9375 -6.765625 C 12.125 -7.328125 11.328125 -7.738281 10.546875 -8 C 9.773438 -8.257812 8.859375 -8.390625 7.796875 -8.390625 C 6.546875 -8.390625 5.550781 -8.085938 4.8125 -7.484375 C 4.070312 -6.878906 3.703125 -6.0625 3.703125 -5.03125 C 3.703125 -4.019531 4.054688 -3.222656 4.765625 -2.640625 C 5.484375 -2.066406 6.457031 -1.78125 7.6875 -1.78125 Z M 7.6875 -1.78125 "/></g></g></g><g fill="#ffffff" fill-opacity="1"><g transform="translate(182.379634, 204.759083)"><g><path d="M 2.59375 -17 L 4.984375 -17 L 4.984375 -14.375 C 6.347656 -16.375 8.113281 -17.375 10.28125 -17.375 C 11.1875 -17.375 12.035156 -17.203125 12.828125 -16.859375 C 13.617188 -16.515625 14.289062 -16.03125 14.84375 -15.40625 C 15.394531 -14.789062 15.832031 -14.054688 16.15625 -13.203125 C 16.476562 -12.359375 16.640625 -11.445312 16.640625 -10.46875 L 16.640625 0 L 14.234375 0 L 14.234375 -10.125 C 14.234375 -11.675781 13.816406 -12.898438 12.984375 -13.796875 C 12.160156 -14.703125 11.050781 -15.15625 9.65625 -15.15625 C 8.25 -15.15625 7.117188 -14.691406 6.265625 -13.765625 C 5.410156 -12.847656 4.984375 -11.632812 4.984375 -10.125 L 4.984375 0 L 2.59375 0 Z M 2.59375 -17 "/></g></g></g><g fill="#ffffff" fill-opacity="1"><g transform="translate(196.478986, 204.759083)"><g><path d="M 7.953125 -19.703125 L 0.734375 -19.703125 L 0.734375 -24.765625 L 20.546875 -24.765625 L 20.546875 -19.703125 L 13.34375 -19.703125 L 13.34375 0 L 7.953125 0 Z M 7.953125 -19.703125 "/></g></g></g><g fill="#ffffff" fill-opacity="1"><g transform="translate(217.590331, 204.759083)"><g><path d="M 2.03125 -26.25 L 6.984375 -26.25 L 6.984375 -15.234375 C 8.210938 -16.753906 9.765625 -17.515625 11.640625 -17.515625 C 12.554688 -17.515625 13.40625 -17.335938 14.1875 -16.984375 C 14.976562 -16.628906 15.65625 -16.132812 16.21875 -15.5 C 16.789062 -14.875 17.238281 -14.132812 17.5625 -13.28125 C 17.882812 -12.4375 18.046875 -11.519531 18.046875 -10.53125 L 18.046875 0 L 13.09375 0 L 13.09375 -9.3125 C 13.09375 -10.445312 12.816406 -11.347656 12.265625 -12.015625 C 11.722656 -12.679688 10.988281 -13.015625 10.0625 -13.015625 C 9.125 -13.015625 8.375 -12.664062 7.8125 -11.96875 C 7.257812 -11.28125 6.984375 -10.359375 6.984375 -9.203125 L 6.984375 0 L 2.03125 0 Z M 2.03125 -26.25 "/></g></g></g><g fill="#ffffff" fill-opacity="1"><g transform="translate(237.29672, 204.759083)"><g><path d="M 2.03125 -17 L 6.796875 -17 L 6.796875 -14.828125 C 7.785156 -16.617188 9.28125 -17.515625 11.28125 -17.515625 C 11.550781 -17.515625 11.804688 -17.503906 12.046875 -17.484375 C 12.296875 -17.460938 12.484375 -17.425781 12.609375 -17.375 L 12.015625 -12.125 C 11.367188 -12.34375 10.773438 -12.453125 10.234375 -12.453125 C 9.203125 -12.453125 8.398438 -12.128906 7.828125 -11.484375 C 7.265625 -10.847656 6.984375 -9.976562 6.984375 -8.875 L 6.984375 0 L 2.03125 0 Z M 2.03125 -17 "/></g></g></g><g fill="#ffffff" fill-opacity="1"><g transform="translate(249.904363, 204.759083)"><g><path d="M 10.28125 0.515625 C 8.925781 0.515625 7.6875 0.296875 6.5625 -0.140625 C 5.4375 -0.585938 4.46875 -1.203125 3.65625 -1.984375 C 2.84375 -2.773438 2.210938 -3.71875 1.765625 -4.8125 C 1.328125 -5.914062 1.109375 -7.117188 1.109375 -8.421875 C 1.109375 -9.734375 1.328125 -10.941406 1.765625 -12.046875 C 2.210938 -13.160156 2.832031 -14.125 3.625 -14.9375 C 4.414062 -15.75 5.351562 -16.378906 6.4375 -16.828125 C 7.519531 -17.285156 8.703125 -17.515625 9.984375 -17.515625 C 11.191406 -17.515625 12.304688 -17.3125 13.328125 -16.90625 C 14.347656 -16.5 15.238281 -15.925781 16 -15.1875 C 16.769531 -14.445312 17.367188 -13.570312 17.796875 -12.5625 C 18.234375 -11.550781 18.453125 -10.441406 18.453125 -9.234375 C 18.453125 -8.796875 18.4375 -8.425781 18.40625 -8.125 C 18.382812 -7.832031 18.335938 -7.476562 18.265625 -7.0625 L 6.25 -7.0625 C 6.5 -6.03125 7.007812 -5.21875 7.78125 -4.625 C 8.5625 -4.03125 9.554688 -3.734375 10.765625 -3.734375 C 11.617188 -3.734375 12.425781 -3.890625 13.1875 -4.203125 C 13.957031 -4.523438 14.675781 -5.046875 15.34375 -5.765625 L 17.96875 -2.84375 C 17.007812 -1.738281 15.863281 -0.898438 14.53125 -0.328125 C 13.195312 0.234375 11.78125 0.515625 10.28125 0.515625 Z M 13.53125 -10.5 C 13.3125 -11.53125 12.882812 -12.316406 12.25 -12.859375 C 11.625 -13.398438 10.84375 -13.671875 9.90625 -13.671875 C 8.945312 -13.671875 8.140625 -13.390625 7.484375 -12.828125 C 6.828125 -12.265625 6.390625 -11.488281 6.171875 -10.5 Z M 13.53125 -10.5 "/></g></g></g><g fill="#ffffff" fill-opacity="1"><g transform="translate(269.277991, 204.759083)"><g><path d="M 6.796875 0.515625 C 5.941406 0.515625 5.15625 0.378906 4.4375 0.109375 C 3.71875 -0.160156 3.097656 -0.535156 2.578125 -1.015625 C 2.066406 -1.492188 1.660156 -2.0625 1.359375 -2.71875 C 1.066406 -3.375 0.921875 -4.082031 0.921875 -4.84375 C 0.921875 -5.65625 1.085938 -6.410156 1.421875 -7.109375 C 1.753906 -7.816406 2.226562 -8.425781 2.84375 -8.9375 C 3.457031 -9.457031 4.175781 -9.859375 5 -10.140625 C 5.832031 -10.429688 6.753906 -10.578125 7.765625 -10.578125 C 9.335938 -10.578125 10.753906 -10.226562 12.015625 -9.53125 L 12.015625 -9.875 C 12.015625 -10.882812 11.679688 -11.691406 11.015625 -12.296875 C 10.347656 -12.898438 9.5 -13.203125 8.46875 -13.203125 C 7.039062 -13.203125 5.867188 -12.597656 4.953125 -11.390625 L 2 -14.828125 C 3.03125 -15.765625 4.113281 -16.445312 5.25 -16.875 C 6.382812 -17.300781 7.65625 -17.515625 9.0625 -17.515625 C 10.238281 -17.515625 11.304688 -17.320312 12.265625 -16.9375 C 13.234375 -16.5625 14.066406 -16.035156 14.765625 -15.359375 C 15.472656 -14.679688 16.015625 -13.875 16.390625 -12.9375 C 16.773438 -12 16.96875 -10.960938 16.96875 -9.828125 L 16.96875 0 L 12.015625 0 L 12.015625 -1.734375 C 11.296875 -0.921875 10.515625 -0.34375 9.671875 0 C 8.835938 0.34375 7.878906 0.515625 6.796875 0.515625 Z M 8.390625 -3.21875 C 9.347656 -3.21875 10.160156 -3.484375 10.828125 -4.015625 C 11.492188 -4.546875 11.890625 -5.238281 12.015625 -6.09375 C 10.878906 -6.832031 9.742188 -7.203125 8.609375 -7.203125 C 7.742188 -7.203125 7.070312 -7.015625 6.59375 -6.640625 C 6.113281 -6.273438 5.875 -5.785156 5.875 -5.171875 C 5.875 -4.554688 6.09375 -4.078125 6.53125 -3.734375 C 6.976562 -3.390625 7.597656 -3.21875 8.390625 -3.21875 Z M 8.390625 -3.21875 "/></g></g></g><g fill="#ffffff" fill-opacity="1"><g transform="translate(287.912169, 204.759083)"><g><path d="M 9.28125 0.515625 C 8.125 0.515625 7.050781 0.289062 6.0625 -0.15625 C 5.070312 -0.613281 4.207031 -1.25 3.46875 -2.0625 C 2.726562 -2.882812 2.148438 -3.84375 1.734375 -4.9375 C 1.316406 -6.03125 1.109375 -7.21875 1.109375 -8.5 C 1.109375 -9.757812 1.316406 -10.9375 1.734375 -12.03125 C 2.148438 -13.125 2.726562 -14.078125 3.46875 -14.890625 C 4.207031 -15.710938 5.082031 -16.351562 6.09375 -16.8125 C 7.101562 -17.28125 8.191406 -17.515625 9.359375 -17.515625 C 10.367188 -17.515625 11.296875 -17.34375 12.140625 -17 C 12.992188 -16.65625 13.738281 -16.164062 14.375 -15.53125 L 14.375 -26.25 L 19.328125 -26.25 L 19.328125 0 L 14.609375 0 L 14.609375 -1.84375 C 13.960938 -1.132812 13.1875 -0.5625 12.28125 -0.125 C 11.382812 0.300781 10.382812 0.515625 9.28125 0.515625 Z M 10.34375 -4 C 10.96875 -4 11.535156 -4.113281 12.046875 -4.34375 C 12.566406 -4.570312 13.015625 -4.890625 13.390625 -5.296875 C 13.773438 -5.710938 14.070312 -6.191406 14.28125 -6.734375 C 14.5 -7.273438 14.609375 -7.863281 14.609375 -8.5 C 14.609375 -9.144531 14.5 -9.738281 14.28125 -10.28125 C 14.070312 -10.820312 13.773438 -11.296875 13.390625 -11.703125 C 13.015625 -12.109375 12.566406 -12.425781 12.046875 -12.65625 C 11.535156 -12.894531 10.96875 -13.015625 10.34375 -13.015625 C 9.757812 -13.015625 9.207031 -12.894531 8.6875 -12.65625 C 8.164062 -12.425781 7.71875 -12.109375 7.34375 -11.703125 C 6.976562 -11.296875 6.691406 -10.820312 6.484375 -10.28125 C 6.273438 -9.738281 6.171875 -9.144531 6.171875 -8.5 C 6.171875 -7.863281 6.273438 -7.273438 6.484375 -6.734375 C 6.691406 -6.191406 6.976562 -5.710938 7.34375 -5.296875 C 7.71875 -4.890625 8.164062 -4.570312 8.6875 -4.34375 C 9.207031 -4.113281 9.757812 -4 10.34375 -4 Z M 10.34375 -4 "/></g></g></g><g fill="#ffffff" fill-opacity="1"><g transform="translate(309.097459, 204.759083)"><g><path d="M 8.5 0.515625 C 6.925781 0.515625 5.445312 0.257812 4.0625 -0.25 C 2.6875 -0.769531 1.515625 -1.523438 0.546875 -2.515625 L 3.25 -5.921875 C 4.113281 -5.097656 5.003906 -4.476562 5.921875 -4.0625 C 6.847656 -3.644531 7.769531 -3.4375 8.6875 -3.4375 C 9.40625 -3.4375 9.953125 -3.546875 10.328125 -3.765625 C 10.710938 -3.992188 10.90625 -4.316406 10.90625 -4.734375 C 10.90625 -5.148438 10.648438 -5.488281 10.140625 -5.75 C 9.640625 -6.007812 8.75 -6.273438 7.46875 -6.546875 C 3.550781 -7.429688 1.59375 -9.242188 1.59375 -11.984375 C 1.59375 -12.796875 1.757812 -13.546875 2.09375 -14.234375 C 2.425781 -14.921875 2.898438 -15.503906 3.515625 -15.984375 C 4.128906 -16.460938 4.867188 -16.835938 5.734375 -17.109375 C 6.597656 -17.378906 7.554688 -17.515625 8.609375 -17.515625 C 9.941406 -17.515625 11.226562 -17.300781 12.46875 -16.875 C 13.71875 -16.445312 14.835938 -15.800781 15.828125 -14.9375 L 13.3125 -11.5 C 12.425781 -12.257812 11.59375 -12.789062 10.8125 -13.09375 C 10.039062 -13.40625 9.269531 -13.5625 8.5 -13.5625 C 7.25 -13.5625 6.625 -13.191406 6.625 -12.453125 C 6.625 -12.054688 6.863281 -11.734375 7.34375 -11.484375 C 7.820312 -11.242188 8.703125 -10.976562 9.984375 -10.6875 C 12.023438 -10.1875 13.523438 -9.472656 14.484375 -8.546875 C 15.453125 -7.628906 15.9375 -6.484375 15.9375 -5.109375 C 15.9375 -4.242188 15.753906 -3.460938 15.390625 -2.765625 C 15.035156 -2.078125 14.535156 -1.492188 13.890625 -1.015625 C 13.253906 -0.535156 12.472656 -0.160156 11.546875 0.109375 C 10.628906 0.378906 9.613281 0.515625 8.5 0.515625 Z M 8.5 0.515625 "/></g></g></g><g clip-path="url(#3fd9bd6253)"><path fill="#219ebc" d="M 83.789062 221.359375 L 81.9375 221.359375 L 81.9375 228.78125 L 83.789062 228.78125 C 89.921875 228.78125 94.894531 223.796875 94.894531 217.644531 L 94.894531 204.652344 C 94.894531 203.484375 95.441406 202.386719 96.375 201.683594 L 100.816406 198.34375 C 101.703125 197.675781 102.246094 196.640625 102.292969 195.527344 C 102.339844 194.414062 101.882812 193.339844 101.054688 192.597656 L 96.136719 188.214844 C 95.34375 187.511719 94.894531 186.5 94.894531 185.441406 L 94.894531 173.101562 C 94.894531 166.949219 89.921875 161.964844 83.789062 161.964844 L 81.9375 161.964844 L 81.9375 169.386719 L 83.789062 169.386719 C 85.832031 169.386719 87.488281 171.050781 87.488281 173.101562 L 87.488281 185.441406 C 87.488281 188.621094 88.847656 191.652344 91.21875 193.765625 L 92.75 195.128906 L 91.929688 195.746094 C 89.136719 197.847656 87.488281 201.148438 87.488281 204.652344 L 87.488281 217.644531 C 87.488281 219.695312 85.832031 221.359375 83.789062 221.359375 Z M 83.789062 221.359375 " fill-opacity="1" fill-rule="evenodd"/></g><g fill="#219ebc" fill-opacity="1"><g transform="translate(58.676353, 207.039649)"><g><path d="M 2.1875 8.03125 L 6.328125 -8.40625 L 14.421875 -5.453125 L 7.140625 9.90625 Z M 8.84375 -19.1875 C 7.414062 -19.1875 6.210938 -19.675781 5.234375 -20.65625 C 4.253906 -21.632812 3.765625 -22.835938 3.765625 -24.265625 C 3.765625 -25.722656 4.253906 -26.941406 5.234375 -27.921875 C 6.210938 -28.910156 7.414062 -29.40625 8.84375 -29.40625 C 10.300781 -29.40625 11.507812 -28.910156 12.46875 -27.921875 C 13.4375 -26.941406 13.921875 -25.722656 13.921875 -24.265625 C 13.921875 -22.835938 13.4375 -21.632812 12.46875 -20.65625 C 11.507812 -19.675781 10.300781 -19.1875 8.84375 -19.1875 Z M 8.84375 -19.1875 "/></g></g></g></svg>